<?xml version="1.0" encoding="utf-8"?>
<!-- Generator: Adobe Illustrator 16.0.0, SVG Export Plug-In . SVG Version: 6.00 Build 0)  -->
<!DOCTYPE svg PUBLIC "-//W3C//DTD SVG 1.1//EN" "http://www.w3.org/Graphics/SVG/1.1/DTD/svg11.dtd">
<svg version="1.1" xmlns="http://www.w3.org/2000/svg" xmlns:xlink="http://www.w3.org/1999/xlink" x="0px" y="0px"
	 width="66.088px" height="2304.75px" viewBox="0 0 66.088 2304.75" enable-background="new 0 0 66.088 2304.75"
	 xml:space="preserve">
<g id="Layer_2_5_">
	<g>
		<defs>
			<rect id="SVGID_1_" x="3.033" y="2265.995" width="29.558" height="29.59"/>
		</defs>
		<clipPath id="SVGID_2_">
			<use xlink:href="#SVGID_1_"  overflow="visible"/>
		</clipPath>
		<path clip-path="url(#SVGID_2_)" fill="#FFFFFF" d="M32.297,2289.746l-6.496-3.826c-0.337-0.173-0.833-0.094-1.101,0.174
			l-1.911,1.912c-0.268,0.268-0.796,0.489-1.175,0.494c0,0-2.442,0.027-6.983-4.512c-4.541-4.542-4.518-6.991-4.518-6.991
			c0.002-0.379,0.224-0.908,0.492-1.176l1.629-1.629c0.268-0.268,0.357-0.769,0.2-1.112l-3.584-6.739
			c-0.158-0.345-0.506-0.407-0.774-0.141l-4.442,4.433c-0.269,0.268-0.53,0.794-0.579,1.168c0,0-0.867,6.479,8.208,15.554
			c9.076,9.075,15.552,8.208,15.552,8.208c0.376-0.05,0.902-0.311,1.17-0.578l4.438-4.438
			C32.69,2290.279,32.634,2289.918,32.297,2289.746"/>
		<path clip-path="url(#SVGID_2_)" fill="#FFFFFF" d="M16.44,2277.597c0.952,0.236,1.854,0.724,2.598,1.467
			c0.75,0.748,1.236,1.657,1.473,2.616h1.813c-0.188-1.484-0.852-2.857-1.92-3.931c-1.082-1.088-2.467-1.756-3.964-1.938V2277.597z"
			/>
		<path clip-path="url(#SVGID_2_)" fill="#FFFFFF" d="M30.044,2281.68h2.134c-0.156-8.137-7.599-15.562-15.737-15.687l0,2.087
			C23.738,2268.485,29.607,2274.359,30.044,2281.68"/>
		<path clip-path="url(#SVGID_2_)" fill="#FFFFFF" d="M25.12,2281.68h2.136c-0.428-5.786-5.051-10.416-10.815-10.812v2.153
			C21.031,2273.409,24.702,2277.08,25.12,2281.68"/>
	</g>
</g>
<g id="Layer_1">
	<g id="Layer_2_4_">
		<g>
			<path fill="#FFFFFF" d="M14.879,2153.518c0.206,0.271,0.347,0.418,0.347,0.418c0,2.754-6.197,2.064-6.197,5.51v0.688
				c0,0.189,0.154-0.74,0.345-0.74h0.509l10.266-7.711c0.527-0.877,1.122-1.074,1.236-2.957L14.879,2153.518z"/>
			<path fill="#FFFFFF" d="M19.917,2155.254l-7.124,5.385h12.42c0.19,0,0.313-0.314,0.313-0.508v-0.688
				C25.526,2156.647,21.451,2156.659,19.917,2155.254"/>
			<path fill="#FFFFFF" d="M21.165,2146.686c-0.577-1.59-2.087-2.734-3.871-2.734c-2.276,0-4.132,1.855-4.132,4.129
				c0,1.654,0.397,2.959,0.839,3.928L21.165,2146.686z"/>
			<polygon fill="#FFFFFF" points="6.833,2162.743 5.28,2160.651 28.433,2143.444 29.988,2145.913 			"/>
			<path fill="#FFFFFF" d="M17.712,2140.497c6.798,0,12.33,5.531,12.33,12.33c0,6.797-5.532,12.328-12.33,12.328
				s-12.328-5.531-12.328-12.328C5.384,2146.028,10.914,2140.497,17.712,2140.497 M17.712,2138.067
				c-8.151,0-14.759,6.605-14.759,14.76c0,8.148,6.608,14.758,14.759,14.758s14.759-6.607,14.759-14.758
				C32.471,2144.674,25.863,2138.067,17.712,2138.067"/>
		</g>
		<g>
			<g>
				<defs>
					<rect id="SVGID_3_" x="3.033" y="2178.538" width="31.511" height="38.77"/>
				</defs>
				<clipPath id="SVGID_4_">
					<use xlink:href="#SVGID_3_"  overflow="visible"/>
				</clipPath>
				<path clip-path="url(#SVGID_4_)" fill="#FFFFFF" d="M30.606,2186.413c0-2.188-1.75-3.938-3.938-3.938
					c-2.189,0-3.939,1.752-3.939,3.938v5.91h1.969c1.094,0,1.971,0.875,1.971,1.971v13.785c0,1.096-0.877,1.971-1.971,1.971H5.003
					c-1.095,0-1.97-0.875-1.97-1.971v-13.785c0-1.096,0.875-1.971,1.97-1.971h13.786v-5.91c0-4.34,3.539-7.877,7.88-7.877
					s7.878,3.537,7.878,7.877v9.193c0,0.363-0.292,0.654-0.655,0.654h-2.628c-0.362,0-0.656-0.291-0.656-0.654L30.606,2186.413
					L30.606,2186.413z"/>
			</g>
		</g>
		<g>
			<g>
				<defs>
					<rect id="SVGID_5_" x="3.033" y="2224.526" width="29.438" height="35.975"/>
				</defs>
				<clipPath id="SVGID_6_">
					<use xlink:href="#SVGID_5_"  overflow="visible"/>
				</clipPath>
				<path clip-path="url(#SVGID_6_)" fill="#FFFFFF" d="M12.235,2243.94h2.958l0.624,0.361l-4.863,9.662l-2.729-4.438l-5.192,0.461
					l5.127-10.221l2.563,1.576L12.235,2243.94z M27.582,2234.346l-1.315,2.266v2.631l-2.3,1.312l-1.315,2.27h-2.628l-2.268,1.312
					l-2.268-1.312h-2.629l-1.314-2.27l-2.3-1.312v-2.631l-1.315-2.266l1.315-2.303v-2.627l2.3-1.314l1.314-2.268h2.629l2.268-1.314
					l2.268,1.314h2.628l1.315,2.268l2.3,1.314v2.627L27.582,2234.346z M24.065,2234.51c0-3.482-2.826-6.311-6.309-6.311
					c-3.484,0-6.31,2.826-6.31,6.311s2.826,6.309,6.31,6.309C21.239,2240.819,24.065,2237.993,24.065,2234.51z M23.014,2234.51
					c0,2.893-2.367,5.258-5.258,5.258c-2.893,0-5.258-2.365-5.258-5.258s2.365-5.26,5.258-5.26
					C20.647,2229.25,23.014,2231.618,23.014,2234.51z M24.788,2241.344l2.563-1.576l5.127,10.221l-5.192-0.461l-2.728,4.438
					l-4.863-9.662l0.625-0.361h2.958L24.788,2241.344z"/>
			</g>
		</g>
	</g>
	<g id="Layer_1_6_">
		<g id="Layer_2_3_">
		</g>
		<g id="Layer_1_5_">
			<g id="Layer_2_2_">
				<g>
					<g>
						<g>
							<g>
								<defs>
									<rect id="SVGID_7_" x="2.573" y="2060" width="24.297" height="30.051"/>
								</defs>
								<clipPath id="SVGID_8_">
									<use xlink:href="#SVGID_7_"  overflow="visible"/>
								</clipPath>
								<path clip-path="url(#SVGID_8_)" fill="#FFFFFF" d="M23.673,2060H5.771c-1.766,0-3.197,1.432-3.197,3.195v17.904
									c0,1.766,1.432,3.195,3.197,3.195h2.557c0,0,3.197,2.559,0,5.754c0,0,5.115-0.639,6.394-5.754h8.951
									c1.766,0,3.197-1.432,3.197-3.195v-17.904C26.87,2061.432,25.438,2060,23.673,2060z"/>
							</g>
						</g>
					</g>
				</g>
				<g>
					<g>
						<g>
							<g>
								<defs>
									<rect id="SVGID_9_" x="2.573" y="2097.725" width="24.297" height="28.521"/>
								</defs>
								<clipPath id="SVGID_10_">
									<use xlink:href="#SVGID_9_"  overflow="visible"/>
								</clipPath>
								<path clip-path="url(#SVGID_10_)" fill="#FFFFFF" d="M24.229,2101.422v13.732c0,2.33-1.896,4.225-4.225,4.225h-6.252
									c-0.45,1.082-1.078,1.916-1.763,2.564c0.619,0.756,1.479,2.387-0.435,4.303c0,0,4.226-0.527,5.282-4.754h7.394
									c1.459,0,2.642-1.184,2.642-2.643v-14.789C26.87,2102.604,25.688,2101.422,24.229,2101.422"/>
							</g>
						</g>
					</g>
					<g>
						<g>
							<g>
								<defs>
									<rect id="SVGID_11_" x="2.573" y="2097.725" width="24.297" height="28.521"/>
								</defs>
								<clipPath id="SVGID_12_">
									<use xlink:href="#SVGID_11_"  overflow="visible"/>
								</clipPath>
								<path clip-path="url(#SVGID_12_)" fill="#CCD3D6" d="M20.003,2117.795c1.458,0,2.641-1.182,2.641-2.641v-13.732H9.439
									c-1.458,0-2.64,1.184-2.64,2.643v13.73h0.528c0,0,1.783,1.436,0.942,3.414c0.354,0.176,0.749,0.283,1.17,0.283h0.567
									c1.061-0.697,2.138-1.84,2.602-3.697H20.003L20.003,2117.795z"/>
							</g>
						</g>
					</g>
					<g>
						<g>
							<g>
								<defs>
									<rect id="SVGID_13_" x="2.573" y="2097.725" width="24.297" height="28.521"/>
								</defs>
								<clipPath id="SVGID_14_">
									<use xlink:href="#SVGID_13_"  overflow="visible"/>
								</clipPath>
								<path clip-path="url(#SVGID_14_)" fill="#FFFFFF" d="M20.003,2097.725H5.214c-1.459,0-2.641,1.184-2.641,2.643v14.789
									c0,1.459,1.182,2.641,2.641,2.641h2.113c0,0,2.641,2.113,0,4.754c0,0,4.226-0.525,5.282-4.754h7.395
									c1.458,0,2.641-1.182,2.641-2.641v-14.789C22.644,2098.907,21.462,2097.725,20.003,2097.725"/>
							</g>
						</g>
					</g>
				</g>
			</g>
			<g id="Layer_1_4_">
				<g id="Layer_2_1_">
					<g>
						<path fill="#FFFFFF" d="M6.427,2038.75v-5.355c-3.549,0-6.428-2.879-6.428-6.428v-2.143c0-3.549,2.879-6.428,6.428-6.428
							h7.499c3.549,0,6.428,2.879,6.428,6.428v2.143c0,3.549-2.879,6.428-6.428,6.428h-2.143L6.427,2038.75z M29.995,2034.465v2.146
							c0,3.549-2.879,6.428-6.428,6.428v5.354l-5.356-5.354h-2.143c-2.946,0-5.423-2.01-6.193-4.721l2.812-2.777h1.239
							c4.352,0,7.968-3.281,8.503-7.5h1.138C27.116,2028.038,29.995,2030.917,29.995,2034.465z"/>
					</g>
				</g>
				<g id="Layer_1_3_">
					<g id="Layer_2">
					</g>
					<g id="Layer_1_2_">
						<g id="Layer_4" display="none">
							<rect x="-18.033" y="-1.997" display="inline" fill="#0A9BC3" width="72" height="3324.998"/>
						</g>
						<g id="Layer_3" display="none">
							<rect x="-17.875" y="70.003" display="inline" fill="#D8878D" width="72" height="72"/>
							<rect x="-17.875" y="214.003" display="inline" fill="#D8878D" width="72" height="72"/>
							<rect x="-17.875" y="357.933" display="inline" fill="#D8878D" width="72" height="72"/>
							<rect x="-17.875" y="501.933" display="inline" fill="#D8878D" width="72" height="72"/>
							<rect x="-17.875" y="645.933" display="inline" fill="#D8878D" width="72" height="72"/>
							<rect x="-17.782" y="790.03" display="inline" fill="#D8878D" width="72" height="72"/>
							<rect x="-17.77" y="934.19" display="inline" fill="#D8878D" width="72" height="72"/>
							<rect x="-17.77" y="1078.189" display="inline" fill="#D8878D" width="72" height="72"/>
							<rect x="-17.763" y="1222.19" display="inline" fill="#D8878D" width="72" height="72"/>
							<rect x="-17.763" y="1366.19" display="inline" fill="#D8878D" width="72" height="72"/>
							<rect x="-17.658" y="1510.19" display="inline" fill="#D8878D" width="72" height="72"/>
							<rect x="-17.658" y="1654.19" display="inline" fill="#D8878D" width="72" height="72"/>
							<rect x="-17.658" y="1798.19" display="inline" fill="#D8878D" width="72" height="72"/>
							<rect x="-17.658" y="1942.19" display="inline" fill="#D8878D" width="72" height="72"/>
							<rect x="-18.11" y="2086.19" display="inline" fill="#D8878D" width="72" height="72"/>
							<rect x="-17.658" y="2230.428" display="inline" fill="#D8878D" width="72" height="72"/>
							<rect x="-17.658" y="2374.499" display="inline" fill="#D8878D" width="72" height="72"/>
							<rect x="-17.658" y="2518.749" display="inline" fill="#D8878D" width="72" height="72"/>
							<rect x="-17.658" y="2662.75" display="inline" fill="#D8878D" width="72" height="72"/>
							<rect x="-17.658" y="2806.75" display="inline" fill="#D8878D" width="72" height="72"/>
							<rect x="-18.05" y="2950.75" display="inline" fill="#D8878D" width="72" height="72"/>
							<rect x="-17.658" y="3094.85" display="inline" fill="#D8878D" width="72" height="72"/>
						</g>
						<g id="Layer_1_1_" display="none">
							<rect x="-18.229" y="-1.999" display="inline" fill="#D8D9DA" width="72" height="72"/>
							<rect x="-18.229" y="142.003" display="inline" fill="#D8D9DA" width="72" height="72"/>
							<rect x="-17.875" y="285.933" display="inline" fill="#D8D9DA" width="72" height="72"/>
							<rect x="-17.788" y="429.933" display="inline" fill="#D8D9DA" width="72" height="72"/>
							<rect x="-17.782" y="717.933" display="inline" fill="#D8D9DA" width="72" height="72"/>
							<rect x="-17.769" y="862.03" display="inline" fill="#D8D9DA" width="72" height="72"/>
							<rect x="-17.775" y="1006.19" display="inline" fill="#D8D9DA" width="72" height="71.999"/>
							<rect x="-18.074" y="1150.19" display="inline" fill="#D8D9DA" width="72" height="72"/>
							<rect x="-17.763" y="1438.19" display="inline" fill="#D8D9DA" width="72" height="72"/>
							<rect x="-17.658" y="1582.19" display="inline" fill="#D8D9DA" width="71.999" height="72"/>
							<rect x="-17.658" y="1726.19" display="inline" fill="#D8D9DA" width="71.999" height="72"/>
							<rect x="-17.67" y="1870.19" display="inline" fill="#D8D9DA" width="72.001" height="72"/>
							<rect x="-17.659" y="2158.309" display="inline" fill="#D8D9DA" width="72" height="72"/>
							<rect x="-17.658" y="2302.428" display="inline" fill="#D8D9DA" width="72" height="72.002"/>
							<rect x="-18.049" y="2446.624" display="inline" fill="#D8D9DA" width="72.001" height="72"/>
							<rect x="-18.048" y="2590.749" display="inline" fill="#D8D9DA" width="72" height="72.002"/>
							<rect x="-18.049" y="2878.75" display="inline" fill="#D8D9DA" width="72" height="72"/>
							<rect x="-17.657" y="3022.801" display="inline" fill="#D8D9DA" width="72" height="72"/>
							<rect x="-17.657" y="3166.85" display="inline" fill="#D8D9DA" width="72" height="72"/>
							<rect x="-17.788" y="573.933" display="inline" fill="#D8D9DA" width="72" height="72"/>
							<rect x="-18.074" y="1294.19" display="inline" fill="#D8D9DA" width="71.999" height="72"/>
							<rect x="-17.658" y="2014.19" display="inline" fill="#D8D9DA" width="72.001" height="72"/>
							<rect x="-17.658" y="2734.75" display="inline" fill="#D8D9DA" width="72" height="72"/>
						</g>
						<g>
							<path fill="#FFFFFF" d="M17.889,145.729c0.34,0.87-0.137,1.711-1.056,1.867l-9.646,1.474
								c-0.944,0.143-1.313-0.404-0.851-1.22l1.558-2.754l-5.576-3.156c-0.584-0.33-0.786-1.061-0.457-1.644l2.061-3.64
								c0.33-0.585,1.062-0.787,1.645-0.457l5.578,3.156l1.559-2.753c0.462-0.817,1.119-0.784,1.482,0.101L17.889,145.729z"/>
							<circle fill="#FFFFFF" cx="26.174" cy="151.914" r="7.329"/>
							<path fill="#FFFFFF" d="M14.188,167.124c-0.365,0.883-1.022,0.917-1.485,0.101l-1.558-2.753l-5.578,3.156
								c-0.582,0.33-1.314,0.127-1.645-0.456l-2.061-3.64c-0.33-0.584-0.127-1.314,0.457-1.646l5.576-3.156l-1.558-2.754
								c-0.463-0.816-0.094-1.364,0.851-1.22l9.646,1.474c0.919,0.157,1.396,0.997,1.056,1.868L14.188,167.124z"/>
						</g>
						<g>
							<path fill="#FFFFFF" d="M30.121,231.365c-2.4,3.099-5.38,5.178-9.957,5.178c-6.581,0-11.205-4.205-12.895-10.489H4.87
								c-1.065,0-1.911-0.841-1.911-1.904c0-1.019,0.846-1.904,1.911-1.904h1.733c-0.045-0.53-0.045-1.105-0.045-1.681
								c0-0.664,0-1.373,0.09-2.037H4.87c-1.065,0-1.911-0.839-1.911-1.858c0-1.063,0.846-1.904,1.911-1.904h2.489
								c1.733-5.975,6.313-10.268,12.625-10.268c4.713,0,7.559,1.859,9.869,4.514c0.354,0.354,0.711,1.019,0.711,1.815
								c0,1.416-1.199,2.566-2.623,2.566c-0.933,0-1.553-0.442-1.912-0.884c-1.688-2.036-3.422-3.143-6.176-3.143
								c-3.203,0-5.604,2.081-6.849,5.399h7.913c1.023,0,1.867,0.842,1.867,1.905c0,1.018-0.844,1.858-1.867,1.858h-8.759
								c-0.089,0.619-0.089,1.284-0.089,1.947c0,0.62,0,1.195,0.046,1.771h8.802c1.023,0,1.866,0.885,1.866,1.903
								c0,1.062-0.843,1.903-1.866,1.903h-8.001c1.244,3.541,3.778,5.621,7.292,5.621c2.665,0,4.398-1.284,6.09-3.364
								c0.443-0.531,1.066-0.886,1.912-0.886c1.33,0,2.445,1.062,2.445,2.39C30.654,230.48,30.389,231.056,30.121,231.365z"/>
						</g>
						<g>
							<path fill="#FFFFFF" d="M17.432,279.675c-11,0-16.769,8.105-16.769,9.391s5.769,9.39,16.769,9.39s16.769-8.105,16.769-9.39
								S28.432,279.675,17.432,279.675z M17.432,296.289c-4.115,0-7.451-3.233-7.451-7.223c0-3.99,3.336-7.224,7.451-7.224
								c4.116,0,7.452,3.234,7.452,7.224C24.884,293.056,21.548,296.289,17.432,296.289z M17.432,289.066
								c-0.682-0.749,1.113-3.612,0-3.612c-2.057,0-3.727,1.617-3.727,3.612s1.669,3.612,3.727,3.612
								c2.059,0,3.728-1.617,3.728-3.612C21.158,288.149,18.012,289.702,17.432,289.066z"/>
						</g>
						<g>
							<path fill="#FFFFFF" d="M33.49,367.857l-8.016-8.015c1.211-1.982,1.904-4.313,1.904-6.81c0-7.244-6.277-13.522-13.523-13.522
								c-7.244,0-13.117,5.874-13.117,13.119c0,7.244,6.277,13.522,13.521,13.522c2.409,0,4.666-0.652,6.604-1.786l8.058,8.056
								c0.788,0.789,2.065,0.789,2.854,0l1.998-1.998C34.562,369.639,34.274,368.647,33.49,367.857z M4.775,352.632
								c0-5.017,4.065-9.083,9.08-9.083c5.017,0,9.486,4.47,9.486,9.487c0,5.015-4.066,9.082-9.083,9.082
								C9.243,362.118,4.775,357.648,4.775,352.632z"/>
						</g>
						<g>
							<path fill="#FFFFFF" d="M31.043,424.723c0-2.092,1.29-3.744,3.229-4.88c-0.354-1.168-0.812-2.286-1.383-3.34
								c-2.176,0.569-3.936-0.283-5.416-1.763c-1.479-1.48-1.933-3.241-1.363-5.416c-1.053-0.57-2.172-1.033-3.34-1.382
								c-1.136,1.938-3.187,3.229-5.279,3.229c-2.094,0-4.145-1.288-5.279-3.229c-1.168,0.349-2.288,0.812-3.34,1.382
								c0.568,2.176,0.115,3.937-1.364,5.417c-1.479,1.479-3.241,2.333-5.416,1.763c-0.569,1.054-1.032,2.172-1.382,3.34
								c1.939,1.14,3.229,2.788,3.229,4.88c0,2.102-1.289,4.146-3.229,5.279c0.35,1.168,0.812,2.287,1.382,3.34
								c2.175-0.562,3.937-0.116,5.416,1.364s1.933,3.241,1.364,5.417c1.052,0.569,2.172,1.033,3.341,1.381
								c1.136-1.938,3.187-3.228,5.278-3.228c2.094,0,4.144,1.289,5.279,3.228c1.168-0.349,2.287-0.812,3.34-1.381
								c-0.568-2.176-0.114-3.938,1.363-5.417c1.48-1.48,3.241-2.333,5.416-1.763c0.57-1.062,1.033-2.172,1.383-3.35
								C32.333,428.466,31.043,426.815,31.043,424.723z M17.49,432.02c-4.029,0-7.297-3.267-7.297-7.297
								c0-4.026,3.268-7.298,7.297-7.298c4.031,0,7.299,3.271,7.299,7.298C24.789,428.753,21.521,432.02,17.49,432.02z"/>
						</g>
						<g>
							<path fill="#FFFFFF" d="M26.294,486.631c-0.467,0-0.926,0.041-1.371,0.115c-1.112-3.637-4.56-6.287-8.641-6.287
								c-4.981,0-9.019,3.946-9.019,8.817c0,0.435,0.033,0.854,0.096,1.271c-0.239-0.021-0.48-0.046-0.729-0.046
								c-3.387,0-6.132,2.688-6.132,5.995c0,3.312,2.745,5.995,6.132,5.995h19.662c4.48,0,8.115-3.553,8.115-7.938
								C34.408,490.183,30.773,486.631,26.294,486.631z"/>
						</g>
						<g>
							<path fill="#FFFFFF" d="M17.452,0.596C8.643,0.596,1.5,7.738,1.5,16.549c0,2.719,0.682,5.276,1.88,7.515
								c1.513,2.825,3.849,5.139,6.688,6.624c2.207,1.156,4.718,1.813,7.384,1.813c2.753,0,5.344-0.697,7.608-1.927
								c2.81-1.529,5.107-3.882,6.578-6.732c1.125-2.187,1.764-4.665,1.764-7.293C33.402,7.737,26.262,0.596,17.452,0.596z
								 M28.98,15.918l-3.653,0.001v-1.48h3.653V15.918z M24.979,7.749l1.047,1.046l-2.584,2.583l-1.047-1.047L24.979,7.749z
								 M16.729,4.448h1.481V4.61v3.491h-1.481V4.608V4.448z M5.961,14.438h3.652v1.479l-3.652,0.001V14.438z M11.445,11.379
								L8.863,8.796L9.908,7.75l2.584,2.583L11.445,11.379z M16.964,28.497c-0.286-0.095-0.562-0.25-0.786-0.48
								c-0.666-0.675-0.74-1.708-0.232-2.465l1.039-13.067h1.135l1.102,13.097c0.494,0.764,0.4,1.794-0.273,2.458
								c-0.211,0.208-0.459,0.352-0.721,0.444C17.816,28.628,17.375,28.631,16.964,28.497z"/>
						</g>
						<g>
							<path fill="#FFFFFF" d="M28.299,1167.327h-3.3v-2.568c0-5.311-2.448-8.434-7.336-8.434c-4.888,0-7.335,3.123-7.335,8.434
								v2.568H6.66c-1.014,0-1.833,1.188-1.833,2.201v14.305c0,1.008,0.784,2.088,1.745,2.398l2.193,0.707
								c0.959,0.309,2.57,0.561,3.58,0.561h10.637c1.009,0,2.619-0.252,3.578-0.561l2.195-0.707
								c0.959-0.312,1.745-1.396,1.745-2.398v-14.305C30.5,1168.516,29.312,1167.327,28.299,1167.327z M13.994,1164.028
								c0-2.65,1.462-4.035,3.668-4.035c2.205,0,3.668,1.385,3.668,4.035v3.299h-7.336V1164.028z"/>
						</g>
						<path fill="#FFFFFF" d="M1.541,702.529c0.852,0.688,2.105,0.562,2.799-0.29v-0.001l2.028-2.499l3.231,4.372
							c0.428,0.582,1.143,0.884,1.861,0.79c0.717-0.101,1.326-0.572,1.59-1.247l3.071-7.832l4.452,10.479
							c0.312,0.74,1.033,1.211,1.832,1.211c0.035,0,0.074,0,0.111-0.002c0.84-0.048,1.557-0.606,1.793-1.42l4.238-14.258
							l1.868,3.838c0.479,0.988,1.672,1.399,2.658,0.917c0.986-0.479,1.402-1.671,0.921-2.658l-4.105-8.438
							c-0.359-0.74-1.136-1.183-1.951-1.113c-0.822,0.067-1.512,0.626-1.746,1.416l-4.121,13.857l-4.191-9.88
							c-0.316-0.746-1.048-1.229-1.861-1.219c-0.81,0.018-1.526,0.515-1.822,1.271l-3.536,9.021L8.043,695.3
							c-0.368-0.493-0.938-0.79-1.555-0.805c-0.619-0.015-1.202,0.255-1.592,0.736l-3.646,4.485
							C0.557,700.583,0.688,701.836,1.541,702.529z"/>
						<g>
							<path fill="#FFFFFF" d="M28.634,1303.967c0,0.211,0.237,0.299,0.255,0.574c0.012,0.203-0.185,0.465,0.186,0.547
								c0.051,0.213,0.427,0.287,0.484,0.066c-0.24,0,0.004-0.354-0.134-0.354c0-0.105-0.077-0.105-0.089-0.24
								c0.03-0.021,0.193,0.016,0.266,0c-0.012-0.131-0.177-0.221-0.177-0.324c-0.062,0-0.209,0.168-0.2-0.021
								c0.012-0.203-0.039-0.111-0.129-0.25c-0.025,0-0.128-0.229-0.088-0.285c0.104,0,0.094,0.025,0.221-0.02
								c0.021,0,0.303-0.09,0.178-0.09c-0.149-0.146-0.045-0.336-0.346-0.246c-0.162,0.049-0.242,0.217-0.426,0.227
								C28.634,1303.588,28.439,1303.967,28.634,1303.967z"/>
							<path fill="#FFFFFF" d="M27.689,1304.321c0.014-0.396-0.332-0.33-0.439-0.559c-0.113,0-0.154-0.088-0.309-0.088
								c-0.101-0.033-0.18-0.01-0.235,0.072c-0.235,0.088-0.093-0.117-0.271-0.117c0.008-0.225-0.08-0.289-0.33-0.262
								c-0.144,0.322-0.36,0.516-0.328,0.879c0.104,0.025,0.086,0.047,0.064,0.154c0.143,0.006,0.988-0.043,0.988-0.137
								c0.029,0,0.177,0.307,0.177,0.049c0.118,0,0.181,0.271,0.462,0.189C27.471,1304.575,27.939,1304.321,27.689,1304.321z"/>
							<path fill="#FFFFFF" d="M14.102,1308.45c0,0.021,0,0.045,0,0.062c0.028-0.01,0.039-0.021,0.067-0.021
								C14.168,1308.467,14.13,1308.45,14.102,1308.45z"/>
							<path fill="#FFFFFF" d="M17.548,1291.698c-9.248,0-16.743,7.496-16.743,16.744s7.495,16.744,16.743,16.744
								c9.246,0,16.744-7.496,16.744-16.744S26.794,1291.698,17.548,1291.698z M21.335,1302.481
								c-0.201,0.061-0.044-0.16-0.041-0.271c0.022,0,0.457,0.021,0.199-0.066c-0.015-0.229-0.068-0.309-0.286-0.309
								c0-0.162-0.057-0.148-0.083-0.326c-0.037-0.26,0.204,0.021,0.28-0.266c0.179,0,0.021,0.131-0.016,0.131
								c0.028,0.012-0.007,0.119-0.007,0.152c0.165-0.002,0.167-0.105,0.285-0.139c-0.024,0.148-0.188,0.186-0.028,0.312
								c0.086,0.061,0.174,0.145,0.139,0.246c0.209,0,0.24,0.195,0.197,0.438c0.116,0,0.111,0.004,0.111-0.109
								c0.111,0.029,0.105,0.139,0,0.139c-0.104,0.201-0.377,0.188-0.57,0.188C21.516,1302.448,21.482,1302.438,21.335,1302.481z
								 M21.338,1302.672c0,0.053-0.109,0.098-0.131,0.021c0.021,0.008,0.029,0,0.021-0.021
								C21.266,1302.672,21.303,1302.672,21.338,1302.672z M22.986,1304.409c0.039,0.154,0.066,0.092,0.066-0.043
								c0.088,0,0.113,0.395-0.133,0.328C22.921,1304.592,22.857,1304.409,22.986,1304.409z M22.943,1304.1
								c0.103,0.043,0.146,0.029,0.132-0.043c0.133,0.043-0.019,0.146-0.046,0.24C22.964,1304.231,22.982,1304.206,22.943,1304.1z
								 M23.163,1305.2c0-0.021,0-0.045,0-0.068c0.165,0.041,0.469,0.709,0.438,0.859c0.127,0,0.246-0.023,0.33,0
								c0,0.143,0.268,0.178,0.389,0.182c0.168,0.01,0.666-0.016,0.666-0.248c0.13,0,0.244,0.092,0.221,0.242
								c0.148,0.016,1.029,0.033,0.965,0.219c0.129,0,0.162,0.221,0.286,0.221c-0.024,0.152,0.155,0.559,0.288,0.559
								c0,0.131,0.081,0.375,0.195,0.459c0.062,0.188,0.269,0.588,0.461,0.695c-0.082,0.156,0.125,0.285,0.178,0.439
								c-0.014,0,0.044,0.229,0.109,0.264c0,0.156,0.326,0.791,0.506,0.791c0.011,0.078-0.17,0.113,0.063,0.129
								c0.032,0.002,0.242-0.004,0.242-0.041c0.19,0,0.45-0.021,0.64-0.09c0,0.283-0.238,0.443-0.199,0.73
								c-0.157,0-0.088,0.162-0.088,0.217c-0.104,0.062-0.119,0.18-0.242,0.244c0,0.127-0.284,0.338-0.368,0.447
								c-0.097,0.113-0.382,0.334-0.418,0.48c0.009-0.035-0.522,0.562-0.399,0.562c0,0.104-0.148,0.982,0.045,0.982
								c0,0.076,0.164,0.812,0.064,0.812c0,0.232-0.153,0.381-0.153,0.566c-0.073,0.053-0.183,0.076-0.221,0.148
								c-0.134,0-0.198,0.285-0.263,0.285c0,0.309-0.088,0.533-0.088,0.879c0.024,0-0.177,0.496-0.177,0.529
								c-0.161,0.104-0.569,0.5-0.569,0.701c0,0-0.287,0.396-0.332,0.459c-0.084,0-0.746,0.127-0.746,0.18
								c-0.144,0-0.504,0.107-0.594-0.021c0-0.145-0.076-0.312-0.088-0.508c-0.066,0-0.078-0.283-0.152-0.283
								c0-0.062-0.42-0.896-0.352-0.896c0-0.086-0.074-0.373-0.088-0.373c0-0.309-0.222-0.561-0.222-0.836
								c-0.065,0-0.198-0.615-0.132-0.615c0-0.32,0.113-0.533,0.16-0.893c0.051-0.395-0.024-0.639-0.095-0.91
								c-0.036,0-0.161-0.207-0.177-0.268c-0.176-0.115-0.24-0.354-0.24-0.566c0.116-0.133,0.161-0.631,0.133-0.791
								c-0.223-0.105-0.31-0.066-0.55-0.066c-0.142-0.285-1.094-0.105-1.362-0.105c0,0.152-0.664-0.025-0.728-0.15
								c-0.161,0-0.481-0.346-0.481-0.504c-0.179-0.119-0.461-0.707-0.461-0.902c-0.154-0.076-0.106-0.373-0.021-0.373
								c0.021-0.084-0.053-0.344-0.09-0.467c-0.026-0.092,0.09-0.191,0.09-0.301c0-0.312,0.008-0.449,0.178-0.775
								c0.055-0.104,0.122-0.199,0.174-0.33c0.09-0.229,0.117-0.01,0.24-0.215c0.118-0.059,0.188-0.254,0.309-0.354
								c0.055-0.068,0.056-0.105,0-0.154c0.023,0,0.153-0.338,0.153-0.416c0.171-0.24,0.048-0.129,0.22-0.109
								c0.063-0.062,0.166-0.238,0.264-0.238c0.044-0.084,0.152-0.135,0.24-0.135c0,0.135,0.359-0.043,0.397-0.043
								c0.062-0.123,0.456-0.266,0.55-0.266C22.262,1305.028,23.039,1305.219,23.163,1305.2z M23.516,1305.024
								c0.031-0.141,0.108-0.031,0.182-0.016c0.168,0.062,0.111-0.002,0.236-0.059C23.934,1305.315,23.729,1305.043,23.516,1305.024
								z M28.721,1314.186c0-0.07,0.016-0.062,0.066-0.104C28.811,1314.19,28.832,1314.221,28.721,1314.186z M20.568,1302.452
								c-0.117-0.119-0.004-0.18,0.022-0.307c-0.218-0.062,0.224-0.121,0.241-0.184c-0.07,0-0.123-0.076-0.096-0.141
								c0.033-0.076,0.086,0.092,0.162,0.053c0.086-0.01,0.264-0.143,0.174,0.115C20.98,1302.256,20.898,1302.448,20.568,1302.452z
								 M18.613,1299.948c0,0,0.253-0.109,0.285-0.109c0,0.043-0.049,0.023,0.022,0.043c0.011,0.041-0.004,0.154,0,0.154
								c0,0.053,0.337-0.062,0.386-0.068c0.268-0.037,0.338-0.213,0.338,0.068c0.146,0.055,0.117-0.037,0.224-0.086
								c0,0.113,0.104,0.104-0.034,0.188c-0.128,0.082-0.232,0.111-0.396,0.111c-0.049,0-0.431,0.064-0.431,0.02
								c-0.14,0-0.25-0.062-0.415-0.09C18.592,1300.125,18.829,1299.948,18.613,1299.948z M28.085,1314.801
								c0.09,0.068,0.156,0.191,0.222,0c-0.16-0.031-0.121-0.086-0.068-0.219c0.109,0.064,0.42,0.174,0.42-0.066
								c-0.256,0,0.043-0.42,0.043-0.146c0.224,0,0.081-0.279,0.176-0.375c0,0.105,0.059,0.438,0.132,0.465
								c0.173,0.156-0.132,0.209-0.132,0.328c-0.077,0.039-0.066,0.188-0.066,0.234c-0.035,0-0.072,0-0.108,0
								c-0.013,0.227-0.109,0.467-0.109,0.645c-0.1,0-0.069,0.355-0.081,0.588c-0.055,0.076-0.105,0.15-0.16,0.227
								C27.805,1316.538,27.998,1315.061,28.085,1314.801z M30.961,1307.315c-0.178,0.006-0.404-0.041-0.48-0.072
								c-0.439,0-0.813-0.418-1.252-0.287c0.008-0.021-0.002-0.029-0.021-0.021c0.036-0.104-0.33-0.748-0.486-0.467
								c-0.041,0.076,0.129,0.355,0.202,0.402c0,0.059,0.037,0.188,0.089,0.238c0.125,0.125-0.029,0.166-0.003,0.236
								c0.162,0,0.136-0.021,0.177-0.264c0.021,0.014,0.017,0.02,0.045,0.02c-0.022,0.096-0.008,0.168,0.039,0.242
								c0.162,0.25-0.037,0.021,0.027,0.197c0.225,0,0.438-0.123,0.549-0.396c0.084,0.062-0.019,0.154,0.064,0.195
								c0.072,0.086,0.145,0.125,0.098,0.229c-0.031,0.062,0.188,0.197,0.145-0.057c0.24,0.066,0.199,0.365,0.022,0.482
								c0,0.113-0.11,0.125-0.11,0.271c0,0.1-0.069,0.27-0.152,0.297c0,0.062-0.654,0.346-0.614,0.465
								c-0.116,0-0.521,0.111-0.595,0.264c-0.081,0-0.409,0.115-0.438,0.176c-0.41,0-0.332-0.479-0.529-0.479
								c0.017-0.082-0.039-0.115-0.086-0.197c0.125,0-0.396-0.971-0.396-1.121c-0.078-0.039-0.182-0.311-0.197-0.416
								c-0.107-0.066-0.222-0.309-0.266-0.438c-0.107-0.07-0.373-0.396-0.416-0.557c0.157,0.021,0.395,0.055,0.395-0.148
								c-0.105,0-0.121-0.131-0.02-0.131c-0.035-0.141,0.07-0.23,0.091-0.34c0.028-0.129,0.083-0.316,0.083-0.479
								c-0.152,0-0.188,0.023-0.308,0.062c0,0.09-0.269-0.021-0.31-0.021c-0.058-0.115-0.474,0.146-0.592-0.088
								c-0.189-0.172-0.139-0.305-0.199-0.549c-0.031-0.119-0.197-0.129-0.299-0.148c-0.285-0.057-0.08,0.346-0.095,0.439
								c0.176,0-0.11,0.217-0.11,0.328c-0.297-0.062-0.197-0.396-0.373-0.482c-0.053-0.088-0.011-0.152-0.134-0.152
								c0-0.117,0.063-0.33-0.063-0.373c0-0.061-0.252-0.082-0.285-0.154c-0.159,0-0.524-0.598-0.637-0.396
								c-0.07,0.129,0.061,0.16,0.086,0.268c0.228-0.047,0.205,0.375,0.483,0.328c0,0.062,0.009,0.119,0.022,0.178
								c0.203-0.049,0.181,0.15,0.283,0.15c-0.074,0.104-0.312-0.158-0.246,0.062c0.035,0.125,0.015,0.232-0.147,0.355
								c0-0.139-0.01-0.506-0.153-0.506c-0.097-0.191-0.385-0.146-0.505-0.328c-0.102,0-0.139-0.311-0.309-0.33
								c-0.031,0.043-0.151,0.09-0.197,0.09c-0.093,0.188-0.616,0.021-0.616,0.043c-0.007,0.002-0.291,0.697-0.308,0.791
								c-0.031,0.193-0.19,0.199-0.238,0.393c-0.024,0.094-0.597,0.049-0.597,0.113c-0.246-0.082-0.461-0.258-0.461-0.521
								c-0.021,0,0.046-0.689,0.088-0.791c0.049,0.014,0.061,0.027,0.089,0.088c0.149-0.061,0.504,0.035,0.504-0.135
								c0.147,0.006,0.19,0.061,0.132,0.178c0.139,0.023,0.373,0.062,0.373-0.133c-0.08,0-0.087-0.012-0.087-0.09
								c0.261-0.271-0.196-0.521-0.196-0.658c-0.094-0.029-0.283-0.23-0.148-0.156c0.113,0.062,0.531,0.193,0.367-0.084
								c0.011-0.004,0.02-0.012,0.023-0.021c0.043,0.029,0.24,0.232,0.24,0.043c0.055,0,0.264-0.135,0.088-0.135
								c0.018-0.1,0.012-0.182,0.021-0.238c0.277,0.146,0.121-0.104,0.264-0.195c0,0.188,0.15-0.088,0.242-0.088
								c0.107-0.162,0.355-0.035,0.417-0.225c-0.136-0.047-0.11-0.383-0.11-0.506c0.162,0.025,0.342-0.219,0.368-0.051
								c0.008,0.062,0.017,0.244,0.052,0.271c0.238,0.125,0.174-0.07,0.174-0.197c-0.08,0-0.187-0.279-0.197-0.416
								c-0.067,0.01-0.172,0.035-0.198,0.088c-0.239,0-0.399-0.088-0.593-0.088c-0.012-0.027-0.242-0.287-0.221-0.287
								c-0.131-0.229,0.135-0.162,0.178-0.174c0-0.223,0.906-0.184,0.943-0.525c-0.297,0,0.307-0.508,0.307-0.506
								c0.203-0.174,0.31-0.322,0.561-0.344c0.107-0.01,1.288-0.334,1.288-0.188c0.116,0.004,0.856,0.002,0.856,0.09
								c0.119,0,0.379,0.131,0.467,0.084c0.145-0.076,0.742,0.18,0.742,0.377c-0.279,0-0.668,0.062-1.033,0.062
								c0,0.082,0.04,0.012,0,0.09c0.126,0,0.354,0.326,0.33,0.438c0.179,0.002,0.248-0.135,0.373-0.135c0,0.148,0.175,0.18,0.219,0
								c-0.137,0-0.066-0.191-0.044-0.191c0.09-0.162,0.272-0.01,0.356-0.189C29.594,1301.854,30.725,1304.458,30.961,1307.315z
								 M8.384,1298.588c0.063-0.008,0.216-0.104,0.247-0.115c0,0.146-0.031,0.146,0.021,0.312c0.027,0,0.156,0.215,0.152,0.307
								c0.12-0.008,0.293-0.086,0.332,0.068c-0.061-0.002-0.119-0.012-0.177-0.023c0.043,0.346-0.147,0.139-0.308,0.139
								c0-0.021-0.48-0.223-0.285,0.104c0.051,0,0.023,0.08,0.17,0.127c0.17,0.062,0.354,0.09,0.533,0.117
								c0.145,0.021,0.228-0.025,0.352-0.025c0-0.018,0.301-0.146,0.088-0.146c0.029-0.119-0.023-0.15-0.154-0.152
								c0.012-0.127,0.316-0.045,0.439-0.045c0.096-0.16,0.003-0.143,0.086-0.287c0.102-0.18,0.221-0.02,0.287-0.189
								c0.1,0.037,0.188,0.094,0.221,0.219c0.078,0.061,0.482,0.666,0.482,0.242c0.146,0.049,0.218,0.314,0.22,0.465
								c0.263-0.039,0.287-0.238,0.287-0.441c0.062,0-0.022-0.098-0.022-0.131c0.097-0.035,0.22,0.096,0.22-0.043
								c0.043,0,0.045,0.041,0.045,0.088c0.136,0.025,0.223-0.018,0.308,0.02c0.059,0.021,0.028,0.314,0.002,0.424
								c-0.033,0.137-0.289,0.139-0.289,0.197c-0.289,0.219,0.342,0.328,0.44,0.463c-0.06,0-0.286-0.027-0.286-0.043
								c-0.143,0-0.488,0.146-0.615,0.043c0.18,0,0.238-0.215,0.264-0.418c-0.161-0.062-0.355,0.041-0.401,0.201
								c-0.076,0.271-0.254-0.012-0.345,0.172c-0.034,0.014-0.352,0.158-0.352,0.104c-0.357,0.055-0.264,0.355-0.264,0.688
								c0.143,0.086,0.432,0.328,0.416,0.463c0.32,0.059,0.438,0.092,0.727,0.135c0.024,0.047,0.119,0.088,0.176,0.105
								c0,0.188,0.172,0.148,0.33,0.148c0-0.236,0.279,0.201,0.308,0.287c-0.039,0,0.065,0.246,0.086,0.33
								c-0.043-0.016-0.058,0-0.043,0.043c0.14,0.053,0.358,0.037,0.396-0.104c-0.134,0-0.088-0.15-0.088-0.244
								c-0.137-0.09-0.117-0.271,0.022-0.312c0,0.127,0.452-0.074,0.196-0.174c0.062-0.143,0.104-0.354,0.004-0.479
								c-0.065-0.074-0.146,0-0.18-0.111c0.172-0.043,0.047-0.375,0.045-0.527c0.056-0.02,0.197,0.035,0.197,0
								c0.169,0,0.451,0.217,0.551-0.045c0.281,0.129,0.057,0.252,0.352,0.154c0,0.061,0.332,0.395,0.373,0.395
								c0,0.021-0.008,0.111,0.066,0.111c0,0.062-0.045-0.041-0.045,0.086c0.043,0.004,0.264,0.047,0.264-0.043
								c0.143,0,0.242-0.174,0.242-0.312c0.088-0.062,0.244,0.479,0.352,0.479c0.079,0.125,0.331,0.303,0.331,0.418
								c0.051,0.053,0.108,0.039,0.108,0.197c0.067,0,0.199-0.27,0.199-0.021c0.062,0,0.241,0.137,0.262,0.242
								c-0.158,0-0.008,0.154-0.088,0.154c0,0.145-0.34,0.027-0.418,0.02c-0.104,0.48-0.738,0.133-1.121,0.256
								c-0.203,0.064-0.592,0.52-0.615,0.732c0.246,0.002,0.354-0.213,0.574-0.285c0.176,0,0.211-0.104,0.373-0.154
								c0,0.049,0.045,0.021,0.045,0.066c-0.313,0-0.123,0.203-0.033,0.35c0.089,0.146,0.188,0.191,0.318,0.197
								c-0.033,0.105-0.199,0.021-0.199,0.135c-0.059,0.021-0.176,0.062-0.197,0.109c-0.354,0.039-0.18,0.016-0.156-0.068
								c0.014,0.029,0.141,0.002,0.135,0.006c-0.021-0.104-0.054-0.096-0.021-0.148c-0.192,0-0.285,0.086-0.44,0.086
								c-0.026,0.053-0.159,0.176-0.22,0.176c-0.045,0.143-0.146,0.387-0.264,0.461c0-0.029-0.313,0.197-0.287,0.197
								c-0.067,0.113-0.145,0.109-0.174,0.287c-0.023,0.01-0.11,0.307-0.11,0.354c-0.136,0.094-0.185,0.465-0.416,0.465
								c-0.144,0.275-0.397,0.238-0.397,0.607c0.088,0.092,0.121,0.48,0.146,0.605c0.033,0.154,0.084,0.311-0.123,0.314
								c-0.016-0.021-0.159-0.236-0.133-0.236c0-0.096-0.11-0.387-0.176-0.48c-0.086-0.119-0.246,0.021-0.373-0.031
								c-0.055-0.104-0.418-0.135-0.549-0.135c0.021,0.082,0.08,0.105,0.088,0.197c-0.107,0.045-0.172,0.094-0.281,0.078
								c-0.191-0.025-0.168-0.178-0.379-0.154c-0.336,0.033-0.57,0.312-0.57,0.646c-0.037,0-0.037,0.658,0,0.658
								c0,0.188,0.154,0.314,0.154,0.463c0.148,0,0.316,0.328,0.462,0.328c0.017,0.111-0.074,0.137,0.176,0.133
								c0-0.02,0.135-0.084,0.153-0.182c-0.172-0.041,0-0.264,0.109-0.309c0,0.154,0.221-0.053,0.221-0.062
								c0.024-0.014,0.24-0.09,0.24-0.09c0-0.18,0.166,0.021,0.045,0.09c-0.121,0-0.11,0.195-0.176,0.195
								c-0.029,0.145-0.084,0.27-0.117,0.398c-0.043,0.172,0.094,0.188,0.049,0.348c0.176,0.033,0.353,0.002,0.529,0
								c0-0.031-0.008-0.062-0.023-0.088c0.256,0,0.023,0.48,0.177,0.48c0,0.188,0.088,0.322,0.088,0.439
								c0.119,0.078,0.19,0.188,0.153,0.33c0.146,0.02,0.462,0.057,0.462-0.135c0.221,0,0.237,0.146,0.221,0.309
								c0.442,0,0.164-0.438,0.351-0.438c0.018-0.07,0.047-0.086,0.09-0.037c0.089,0.049,0.16-0.092,0.232-0.137
								c0.021-0.021,0.102-0.062,0.117-0.062c0.062,0.037,0.066,0.025,0.096,0.066c0.119-0.002,0.24-0.066,0.344-0.146
								c0.16,0.021,0.106,0.359,0.404,0.387c0.119,0.012,0.396,0.041,0.496-0.027c0.026-0.02,0.12,0.062,0.131,0.094
								c0.098,0,0.09,0.088,0.133,0.086c0.01,0.02,0.023,0.023,0.043,0.02c0.014,0.039,0.092,0.055,0.133,0.152
								c0,0.098,0.197,0.111,0.197,0.178c0.143,0.07-0.049,0.094,0.168,0.154c0.121,0.039,0.23,0.104,0.359,0.104
								c0.041-0.154,0.176,0.021,0.242,0.021c0.035,0.072,0.053,0.021,0.087,0.09c0.203,0.168,0.069,0.104,0.153,0.283
								c0.099,0.062,0.129,0.289,0.154,0.418c-0.078,0-0.021,0.303-0.021,0.33c-0.096,0,0.242,0.186,0.242-0.043
								c0.14,0.02,0.23,0.178,0.33,0.178c-0.059,0.133,0.154,0.229,0.154,0.02c0.207,0.021,0.152,0.334,0.131,0.439
								c0.174,0,0.193-0.117,0.371-0.113c0.104,0.002,0.205,0.078,0.244-0.037c0.247,0.082,0.352,0.164,0.516,0.312
								c0.283,0.25,0.328,0.895,0.033,1.115c0,0.041-0.319,0.395-0.328,0.395c0,0.043-0.01,0.48-0.022,0.48
								c0,0.088-0.069,0.57-0.133,0.57c0,0.244-0.161,0.293-0.218,0.525c-0.133,0.104-0.495,0.266-0.551,0.373
								c-0.104,0-0.182,0.09-0.285,0.09c-0.017,0.027-0.239,0.238-0.198,0.238c-0.017,0.154,0.011,0.521-0.072,0.625
								c-0.058,0.064-0.138,0.062-0.104,0.168c-0.123,0,0.01,0.088-0.185,0.088c-0.125,0-0.341,0.176-0.349,0.322
								c-0.01,0.186-0.057,0.311-0.213,0.424c0,0.062-0.284,0.082-0.284,0.24c0.026,0,0,0.299,0,0.328
								c-0.085-0.002-0.293,0.084-0.33,0.152c-0.287,0-0.252,0.027-0.44,0.148c0,0.039-0.024,0.182-0.064,0.182
								c0,0.225-0.158,0.021-0.286,0.131c0.05,0,0.114,0.221,0.088,0.221c0,0.191-0.12,0.209-0.241,0.355
								c-0.06,0.035-0.111,0.195-0.154,0.195c0,0.129-0.065,0.248-0.065,0.373c0.026,0,0.001,0.061,0.021,0.105
								c0.062-0.021,0.064-0.086,0.088-0.086c0-0.109,0.175,0.061,0.066,0.061c-0.09,0.143-0.188,0.146-0.24,0.33
								c-0.158,0-0.302,0.396-0.154,0.396c0,0.068,0.027,0.131,0.06,0.188c-0.358-0.1-0.71-0.211-1.056-0.34
								c-0.016-0.4-0.004-1.449,0.139-1.449c0-0.062,0.059-0.354,0.109-0.354c0-0.176,0.021-0.385,0-0.594
								c-0.064-0.131,0.087-0.301,0.133-0.506c0.253-0.127,0.072-1.404,0.264-1.404c0-0.646,0.143-1.012,0.043-1.604
								c0.047,0-0.289-0.354-0.285-0.354c-0.324,0-0.549-0.521-0.549-0.744c-0.031-0.104-0.111-0.25-0.111-0.375
								c0.074,0-0.461-0.785-0.461-0.771c-0.281-0.154,0.016-0.379,0.043-0.639c-0.244-0.08,0.004-0.746,0.111-0.746
								c0.01-0.084,0.055-0.145,0.131-0.176c0.055,0.219,0.312-0.107,0.11-0.107c0-0.146-0.017-0.453,0-0.521
								c0-0.229-0.196-0.664-0.353-0.199c-0.164-0.082-0.58-0.064-0.615-0.328c0.025-0.129-0.236-0.396-0.329-0.438
								c0.085-0.23-0.446-0.527-0.638-0.527c0-0.049-0.102-0.025-0.131-0.088c-0.196,0-0.242-0.27-0.463-0.27
								c-0.254,0-0.512-0.178-0.744-0.178c-0.08-0.154-0.443-0.098-0.529-0.266c-0.189,0-0.264-0.361-0.271-0.498
								c-0.007-0.16-0.138-0.729-0.365-0.729c0-0.143-0.315-0.373-0.396-0.373c0-0.021-0.127-0.312-0.177-0.312
								c0-0.096-0.333-0.52-0.387-0.336c-0.035,0.119,0.254,0.281,0.254,0.424c0.055,0,0.281,0.432,0.328,0.51
								c0.494,0.838-0.371,0.268-0.371-0.09c-0.109-0.061-0.285-0.479-0.285-0.594c-0.065-0.057-0.258-0.461-0.241-0.461
								c0-0.271-0.147-0.396-0.438-0.396c-0.015-0.02-0.261-0.373-0.266-0.373c0-0.104-0.197-0.449-0.307-0.506
								c0-0.229-0.117-0.51-0.064-0.746c0-0.412-0.008-0.928-0.384-1.238C6.105,1301.147,7.134,1299.75,8.384,1298.588z
								 M15.023,1303.397c0,0.107-0.053,0.145-0.174,0.146C14.875,1303.444,14.914,1303.461,15.023,1303.397z M14.322,1308.495
								c-0.067,0-0.153,0.062-0.111-0.066C14.262,1308.428,14.322,1308.448,14.322,1308.495z M13.377,1308.473
								c-0.036,0.07-0.333,0.062-0.374-0.02c0.108,0,0.194,0.045,0.308,0c0-0.062-0.051-0.109-0.088-0.176
								c0.119,0,0.254,0.092,0.416,0.088c0-0.104-0.043,0.021,0-0.109c0.069,0.021,0.235,0.174,0.243,0.242
								C13.643,1308.469,13.63,1308.473,13.377,1308.473z M13.553,1309.506c-0.018,0.062-0.016,0.064-0.089,0.064
								c0.007-0.029,0.015-0.062,0.022-0.088C13.509,1309.491,13.529,1309.499,13.553,1309.506z M12.41,1307.946
								c-0.112,0-0.33-0.104-0.396-0.197c0.109,0.004,0.217,0.049,0.286-0.066c0.278,0.027,0.304,0.229,0.527,0.229
								c0.042,0.066,0.282,0.244,0.051,0.268C12.704,1308.188,12.482,1308.09,12.41,1307.946z M12.738,1308.54
								c-0.043,0.008-0.086,0.014-0.131,0.02C12.619,1308.459,12.716,1308.346,12.738,1308.54z M12.587,1308.563
								c-0.083,0-0.217,0.025-0.155-0.143C12.54,1308.444,12.592,1308.487,12.587,1308.563z M11.794,1307.725
								c0,0.127-0.295,0.164-0.22-0.043c0.021,0.016,0.045,0.021,0.066,0.021C11.669,1307.813,11.729,1307.758,11.794,1307.725z"/>
						</g>
						<g>
							<path fill="#FFFFFF" d="M31.887,1365.62H3.249c-1.461,0-2.658,1.195-2.658,2.66v17.543c0,1.463,1.197,2.66,2.658,2.66h28.638
								c1.461,0,2.658-1.197,2.658-2.66v-17.543C34.545,1366.815,33.348,1365.62,31.887,1365.62z M32.232,1374.743H3.037v-5.062
								h29.195V1374.743L32.232,1374.743z"/>
						</g>
						<g>
							<path fill="#F26722" d="M33.717,1781.213l-5.861-13.951c-0.465-0.93-1.693-1.688-2.731-1.688h-3.851l0.744,7.562h5.027
								l-9.496,7.875l-9.496-7.875h5.026l0.745-7.562H9.973c-1.039,0-2.268,0.762-2.731,1.688l-5.862,13.951
								c-0.464,0.932-0.705,2.533-0.533,3.562l1.266,6.854c0.172,1.027,1.162,1.867,2.199,1.867h26.477
								c1.038,0,2.027-0.84,2.197-1.867l1.267-6.854C34.422,1783.747,34.183,1782.145,33.717,1781.213z M31.18,1786.293
								l-0.482,2.686c-0.145,1.029-1.111,1.873-2.147,1.873h-22c-1.038,0-2.006-0.844-2.149-1.873l-0.482-2.686
								c-0.143-1.031,0.588-1.875,1.626-1.875h24.011C30.593,1784.418,31.322,1785.262,31.18,1786.293z"/>
						</g>
						<g>
							<g>
								<path fill="#FFFFFF" d="M17.054,1428.647c-9.26,0-16.768,7.508-16.768,16.766c0,9.26,7.508,16.768,16.768,16.768
									c9.26,0,16.767-7.508,16.767-16.768C33.821,1436.155,26.314,1428.647,17.054,1428.647z M17.054,1459.77
									c-7.938,0-14.369-6.434-14.369-14.359c0-7.939,6.432-14.369,14.369-14.369c7.934,0,14.368,6.432,14.368,14.369
									C31.421,1453.336,24.987,1459.77,17.054,1459.77z"/>
							</g>
							<path fill="#FFFFFF" d="M17.792,1447.069v4.453c0.746-0.205,1.725-0.695,1.725-2.111
								C19.518,1447.918,18.383,1447.377,17.792,1447.069z"/>
							<path fill="#FFFFFF" d="M14.809,1441.278c0,1.391,1.182,1.93,1.75,2.188v-4.195
								C16.043,1439.399,14.809,1439.76,14.809,1441.278z"/>
							<path fill="#FFFFFF" d="M17.054,1431.963c-7.422,0.014-13.426,6.018-13.439,13.439c0.014,7.422,6.018,13.424,13.439,13.438
								c7.42-0.014,13.424-6.018,13.438-13.438C30.479,1437.979,24.477,1431.977,17.054,1431.963z M17.972,1454.301v1.156
								c0,0.439-0.078,0.516-0.541,0.516h-0.515c-0.462,0-0.539-0.076-0.539-0.516v-1.156c-0.876,0-4.478-0.592-4.478-1.363
								c0-0.07,0-0.07,0.051-0.229l0.746-2.162c0.025-0.053,0.129-0.207,0.231-0.207c0.154,0,1.88,1.004,3.449,1.188v-5.045
								c-1.569-0.691-4.53-1.602-4.53-4.99c0-3.785,3.346-4.865,4.53-4.916v-1.268c0-0.438,0.077-0.518,0.539-0.518h0.515
								c0.463,0,0.541,0.078,0.541,0.518v1.268c0.746,0.051,4.042,0.617,4.042,1.49c0,0.104-0.024,0.182-0.077,0.277l-0.799,1.75
								c-0.052,0.131-0.127,0.205-0.23,0.205c-0.153,0-1.83-1.021-2.936-1.021v4.762c1.674,0.824,4.504,1.93,4.504,5.225
								C22.477,1452.834,19.671,1454.02,17.972,1454.301z"/>
						</g>
						<g>
							<g>
								<path fill="#FFFFFF" d="M19.984,1038.918c-3.159,3.16-6.819,6.181-8.264,4.734c-2.072-2.071-3.349-3.874-7.914-0.206
									c-4.564,3.67-1.059,6.107,0.947,8.123c2.314,2.312,10.945,0.122,19.475-8.408s10.725-17.16,8.408-19.479
									c-2.009-2.008-4.453-5.512-8.121-0.939c-3.67,4.562-1.867,5.841,0.205,7.913
									C26.166,1032.099,23.146,1035.757,19.984,1038.918z"/>
							</g>
							<path fill="#FFFFFF" d="M2.199,1029.277c-0.771-0.606-0.771-1.604,0-2.206l7.887-6.204c0.744-0.607,1.377-0.312,1.377,0.662
								v3.253h6.59c0.662,0,1.242,0.552,1.242,1.241v4.301c0,0.688-0.58,1.242-1.242,1.242h-6.59v3.227
								c0,0.992-0.633,1.296-1.377,0.689L2.199,1029.277z"/>
						</g>
						<g>
							<path fill="#FFFFFF" d="M17.686,547.521l13.229,16.527c0,0,0.202,0.519,0,0.662l-5.189,4.021c0,0-8.244,6.208-15.062-2.144
								c-6.817-8.346,1.019-14.646,1.019-14.646l5.443-4.436C17.124,547.521,17.077,547.318,17.686,547.521z"/>
							<path fill="#FFFFFF" d="M3.831,574.864c-0.786,0.636-1.938,0.514-2.576-0.273l-0.223-0.271
								c-0.636-0.787-0.515-1.94,0.272-2.576l13.493-10.907c0.787-0.636,1.94-0.513,2.577,0.274l0.223,0.271
								c0.637,0.786,0.514,1.939-0.271,2.575L3.831,574.864z"/>
							<path fill="#FFFFFF" d="M14.537,561.086c-0.787,0.636-1.939,0.514-2.576-0.273l-0.223-0.271
								c-0.637-0.787-0.514-1.939,0.271-2.575l13.492-10.908c0.788-0.636,1.941-0.513,2.576,0.273l0.225,0.271
								c0.637,0.786,0.514,1.94-0.271,2.576L14.537,561.086z"/>
							<path fill="#FFFFFF" d="M19.913,567.871c-0.788,0.637-1.94,0.515-2.577-0.273l-0.223-0.271
								c-0.637-0.787-0.514-1.939,0.273-2.576l13.492-10.907c0.786-0.636,1.939-0.514,2.577,0.273l0.224,0.271
								c0.635,0.787,0.512,1.939-0.271,2.576L19.913,567.871z"/>
						</g>
						<g id="g2286_1_">
							<path id="path7025_1_" fill="none" stroke="#FFFFFF" stroke-width="3" stroke-linecap="round" stroke-linejoin="round" d="
								M9.102,959.734c2.961,1.897,10.836-0.293,10.836-0.293"/>
							<path id="path7027_1_" fill="none" stroke="#FFFFFF" stroke-width="3" stroke-linecap="round" stroke-linejoin="round" d="
								M15.169,954.475c-1.466,14.086-0.581,32.026-8.037,27.409c-4.851-3.005-1.575-9.963,12.417-14.935
								c10.551-3.747,12.646,9.968,5.322,15.391"/>
							<path id="path7029_1_" fill="none" stroke="#FFFFFF" stroke-width="3" stroke-linecap="round" stroke-linejoin="round" d="
								M25.376,956.999c2.165,1.047,4.847,1.995,4.688,4.917"/>
						</g>
						<g>
							<g>
								<path fill="#FFFFFF" d="M26.029,816.521H10.066c-1.795,0-3.264,1.469-3.264,3.264v25.453c0,1.794,1.469,3.262,3.264,3.262
									h15.963c1.793,0,3.264-1.468,3.264-3.262v-25.453C29.293,817.991,27.822,816.521,26.029,816.521z M18.048,847.195
									c-1.26,0-2.284-0.73-2.284-1.633c0-0.899,1.024-1.639,2.284-1.639c1.263,0,2.286,0.731,2.286,1.639
									C20.334,846.464,19.311,847.195,18.048,847.195z M26.234,842.301H9.859v-20.646h16.375V842.301z"/>
							</g>
							<g>
								<g>
									<path fill="#FFFFFF" d="M16.316,839.216c-0.441,0-0.86-0.207-1.129-0.562l-3.631-4.792
										c-0.472-0.624-0.348-1.521,0.274-1.984c0.624-0.473,1.511-0.348,1.983,0.275L16.2,835.3l6.005-9.638
										c0.411-0.663,1.284-0.866,1.948-0.453s0.865,1.286,0.453,1.951l-7.092,11.385c-0.246,0.396-0.672,0.646-1.138,0.667
										C16.359,839.216,16.337,839.216,16.316,839.216z"/>
								</g>
							</g>
						</g>
						<g>
							<path fill="#FFFFFF" d="M26.236,1088.521H10.275c-1.795,0-3.264,1.469-3.264,3.264v25.451c0,1.796,1.469,3.264,3.264,3.264
								h15.961c1.793,0,3.264-1.468,3.264-3.264v-25.451C29.5,1089.99,28.029,1088.521,26.236,1088.521z M18.256,1119.195
								c-1.26,0-2.283-0.732-2.283-1.642c0-0.896,1.022-1.63,2.283-1.63c1.262,0,2.285,0.729,2.285,1.63
								C20.541,1118.463,19.518,1119.195,18.256,1119.195z M26.445,1114.3H10.068v-20.645h16.377V1114.3z"/>
						</g>
						<g>
							<path fill="#FFFFFF" d="M21.789,1097.409c-0.984-0.711-2.223-1.066-3.711-1.066c-1.133,0-2.088,0.25-2.866,0.75
								c-1.231,0.783-1.886,2.111-1.965,3.985h2.854c0-0.544,0.16-1.071,0.479-1.578c0.317-0.506,0.858-0.759,1.62-0.759
								c0.775,0,1.311,0.205,1.604,0.616c0.291,0.403,0.438,0.857,0.438,1.357c0,0.438-0.219,0.832-0.48,1.193
								c-0.145,0.212-0.336,0.4-0.572,0.583c0,0-1.547,0.993-2.228,1.791c-0.396,0.463-0.43,1.153-0.465,2.146
								c-0.002,0.071,0.024,0.226,0.271,0.226c0.25,0,2.002,0,2.223,0c0.221,0,0.266-0.164,0.27-0.235
								c0.016-0.363,0.057-0.547,0.122-0.756c0.124-0.396,0.466-0.741,0.847-1.036l0.785-0.542c0.711-0.553,1.274-1.006,1.525-1.362
								c0.427-0.585,0.729-1.305,0.729-2.16C23.268,1099.171,22.773,1098.119,21.789,1097.409z M18.031,1108.37
								c-0.983-0.029-1.797,0.651-1.826,1.718c-0.03,1.066,0.74,1.772,1.727,1.802c1.027,0.029,1.817-0.628,1.85-1.688
								C19.811,1109.126,19.059,1108.4,18.031,1108.37z"/>
						</g>
						<g>
							<polygon fill="#FFFFFF" points="30.775,631.793 34.083,618.192 20.464,621.483 23.915,624.934 18.072,630.776 
								12.493,625.195 0.626,637.065 4.277,640.717 4.277,640.715 12.493,632.499 18.072,638.08 27.566,628.585 							"/>
						</g>
						<g>
							<path fill="#FFFFFF" d="M30.947,888.769H4.148c-1.842,0-3.35,1.517-3.35,3.354v20.099c0,1.847,1.508,3.354,3.35,3.354h26.799
								c1.842,0,3.349-1.511,3.349-3.354v-20.1C34.297,890.276,32.789,888.769,30.947,888.769z M30.947,912.217H4.148v-20.099
								h26.799V912.217z M15.873,905.685H7.498v3.021h8.375V905.685z M15.873,900.661H7.498v3.014h8.375V900.661z M15.873,895.636
								H7.498v3.021h8.375V895.636z M27.43,906.355c0,0-2.846-0.745-2.846-2.209c0-1.396,1.841-1.979,1.841-4.826
								c0-2.312-0.702-3.688-3.014-3.688s-3.017,1.373-3.017,3.688c0,2.847,1.844,3.433,1.844,4.826
								c0,1.463-2.848,2.209-2.848,2.209c-0.168,0-0.168,2.345-0.168,2.345h8.375C27.598,908.7,27.598,906.355,27.43,906.355z"/>
						</g>
						<g>
							<path fill="#FFFFFF" d="M28.822,747.514H6.164c-3.128,0-5.665,2.536-5.665,5.665v1.321h33.986v-1.321
								C34.485,750.05,31.953,747.514,28.822,747.514z"/>
							<circle fill="#FFFFFF" cx="17.486" cy="768.567" r="3.758"/>
							<path fill="#FFFFFF" d="M0.5,775.837c0,3.127,2.536,5.665,5.665,5.665h22.657c3.132,0,5.666-2.537,5.666-5.665V757.06H0.5
								V775.837z M8.848,766.053c0.178-0.6,0.416-1.178,0.709-1.719c1.121,0.292,2.027-0.146,2.791-0.908
								c0.762-0.762,0.995-1.669,0.7-2.789c0.543-0.293,1.119-0.531,1.722-0.712c0.584,0.999,1.641,1.662,2.717,1.662
								c1.078,0,2.134-0.664,2.721-1.662c0.6,0.188,1.177,0.419,1.719,0.712c-0.291,1.12-0.059,2.027,0.703,2.789
								c0.762,0.761,1.669,1.2,2.79,0.908c0.294,0.541,0.53,1.118,0.711,1.719c-1,0.586-1.663,1.438-1.663,2.521
								c0,1.069,0.663,1.929,1.663,2.514c-0.181,0.602-0.417,1.177-0.711,1.719c-1.121-0.293-2.028,0.146-2.79,0.908
								c-0.762,0.762-0.994,1.67-0.701,2.789c-0.544,0.293-1.119,0.532-1.721,0.711c-0.586-0.999-1.643-1.662-2.721-1.662
								c-1.077,0-2.133,0.663-2.717,1.662c-0.603-0.179-1.178-0.418-1.722-0.711c0.294-1.119,0.062-2.027-0.7-2.789
								c-0.764-0.763-1.67-0.996-2.791-0.703c-0.293-0.542-0.531-1.119-0.709-1.72c0.998-0.585,1.66-1.646,1.66-2.719
								C10.508,767.489,9.846,766.639,8.848,766.053z"/>
						</g>
						<path fill="#FFFFFF" d="M28.312,1226.5H6.846c-3.482,0-6.307,2.822-6.307,6.305v12.105c0,2.924,1.993,5.375,4.691,6.09
							c-0.444,1.312-1.444,2.74-3.371,4.193c-1.287,0.971,5.177,2.219,11.252-3.98h15.201c3.48,0,6.304-2.822,6.304-6.305v-12.105
							C34.615,1229.323,31.793,1226.5,28.312,1226.5z M23.949,1240.897c0,0.57-0.484,1.041-1.041,1.041h-5.525v2.697
							c0,0.834-0.533,1.096-1.156,0.58l-6.615-5.205c-0.647-0.508-0.647-1.342,0-1.85l6.615-5.203
							c0.623-0.51,1.156-0.256,1.156,0.553v2.73h5.525c0.557,0,1.041,0.463,1.041,1.039V1240.897z"/>
						<path fill="#FFFFFF" d="M9.5,98.5c0,0.552-0.447,1-1,1h-5c-0.553,0-1-0.448-1-1v-16c0-0.552,0.447-1,1-1h5
							c0.553,0,1,0.448,1,1V98.5z"/>
						<path fill="#FFFFFF" d="M33.5,98.5c0,0.552-0.447,1-1,1h-5c-0.553,0-1-0.448-1-1v-10c0-0.552,0.447-1,1-1h5
							c0.553,0,1,0.448,1,1V98.5z"/>
						<path fill="#FFFFFF" d="M25.5,98.5c0,0.552-0.447,1-1,1h-5c-0.553,0-1-0.448-1-1v-21c0-0.552,0.447-1,1-1h5
							c0.553,0,1,0.448,1,1V98.5z"/>
						<path fill="#FFFFFF" d="M17.5,98.5c0,0.552-0.447,1-1,1h-5c-0.553,0-1-0.448-1-1v-29c0-0.552,0.447-1,1-1h5
							c0.553,0,1,0.448,1,1V98.5z"/>
						<path fill="#F26722" d="M2.035,1827.096v4.738c14.175,0,25.665,11.49,25.665,25.666h4.739
							C32.439,1840.708,18.826,1827.096,2.035,1827.096z M2.035,1836.573v4.738c8.941,0,16.188,7.248,16.188,16.188h4.738
							C22.962,1845.942,13.593,1836.573,2.035,1836.573z M6.576,1848.418c-2.508,0-4.541,2.033-4.541,4.539
							c0,2.51,2.033,4.543,4.541,4.543c2.508,0,4.541-2.033,4.541-4.543C11.117,1850.452,9.084,1848.418,6.576,1848.418z"/>
						<path fill="#FFFFFF" d="M16.887,1495.442c-9.296,0-16.833,7.535-16.833,16.832c0,9.299,7.537,16.834,16.833,16.834
							c9.296,0,16.833-7.535,16.833-16.834C33.72,1502.979,26.183,1495.442,16.887,1495.442z M24.109,1507.899
							c1.23,0,2.228,0.998,2.228,2.229s-0.998,2.23-2.228,2.23s-2.228-0.998-2.228-2.23
							C21.881,1508.897,22.878,1507.899,24.109,1507.899z M10.247,1507.899c1.23,0,2.228,0.998,2.228,2.229s-0.998,2.23-2.228,2.23
							s-2.228-0.998-2.228-2.23C8.019,1508.897,9.016,1507.899,10.247,1507.899z M27.536,1519.194
							c-0.171,0.189-4.243,4.797-10.606,4.797c-6.406,0-10.479-4.605-10.649-4.797c-0.358-0.412-0.314-1.039,0.098-1.396
							c0.413-0.357,1.039-0.312,1.397,0.098c0.034,0.039,3.671,4.115,9.111,4.115c5.483,0,9.12-4.076,9.156-4.115
							c0.361-0.406,0.986-0.447,1.396-0.096C27.85,1518.159,27.894,1518.782,27.536,1519.194z"/>
						<g>
							<path fill="#FFFFFF" d="M3.577,1596.622l9.54-16.695H0l11.924-16.688h16.694l-10.732,10.729h15.502L3.577,1596.622z"/>
						</g>
						<g>
							<path fill="#FFFFFF" d="M12.718,1648.114l-7.482-2.994v2.533l7.482,2.994V1648.114z M12.718,1640.346l-7.482-2.992v2.531
								l7.482,2.992V1640.346z M32.841,1627.358c-0.514-0.354-1.167-0.418-1.743-0.188l-14.267,5.707l-14.267-5.707
								c-0.576-0.229-1.229-0.16-1.743,0.188c-0.514,0.35-0.821,0.928-0.821,1.549v23.938c0,0.771,0.465,1.453,1.175,1.738
								l14.93,5.971c0,0,0.306,0.104,0.364,0.109c0.12,0.021,0.241,0.037,0.363,0.037s0.243-0.02,0.364-0.037
								c0.057-0.012,0.365-0.111,0.365-0.111l14.928-5.969c0.71-0.285,1.175-0.973,1.175-1.738v-23.938
								C33.662,1628.286,33.354,1627.708,32.841,1627.358z M14.961,1656.874l-11.969-4.787v-20.961l11.969,4.787V1656.874z
								 M30.671,1652.086l-11.969,4.787v-20.961l11.969-4.787V1652.086z M28.428,1645.12l-7.483,2.994v2.533l7.483-2.994V1645.12z
								 M28.428,1637.354l-7.483,2.992v2.531l7.483-2.992V1637.354z"/>
						</g>
						<g>
							<path fill="#FFFFFF" d="M31.51,1699.944c-3.336-3.062-8.745-3.062-12.083,0l-2.265,2.08l-2.266-2.08
								c-3.336-3.062-8.745-3.062-12.082,0c-3.753,3.439-3.753,9.023,0,12.475l14.348,13.168l14.348-13.168
								C35.265,1708.973,35.265,1703.389,31.51,1699.944z"/>
						</g>
					</g>
					<g>
						<path fill="#FFFFFF" d="M17.824,1892.346v-2.838h1.524c0.787,0,1.424-0.637,1.424-1.424s-0.638-1.424-1.424-1.424H11.96
							c-0.787,0-1.423,0.637-1.423,1.424s0.637,1.424,1.423,1.424h1.492v2.84c-7.048,1.061-12.453,7.135-12.453,14.479
							c0,8.088,6.556,14.645,14.643,14.645s14.643-6.557,14.643-14.645C30.284,1899.481,24.876,1893.399,17.824,1892.346z
							 M15.642,1917.809c-6.056,0-10.981-4.926-10.981-10.979c0-6.059,4.926-10.982,10.981-10.982
							c6.055,0,10.981,4.932,10.981,10.982C26.623,1912.883,21.697,1917.809,15.642,1917.809z"/>
						<path fill="#FFFFFF" d="M22.746,1910.108l-5.791-3.912v-6.734c0-0.162-0.066-0.318-0.179-0.432
							c-0.114-0.115-0.271-0.184-0.432-0.184h-1.602c-0.162,0-0.318,0.064-0.432,0.184c-0.113,0.113-0.179,0.27-0.179,0.432v7.951
							c0,0.162,0.065,0.318,0.179,0.432c0.046,0.049,0.1,0.084,0.157,0.115l6.749,4.521c0.102,0.061,0.22,0.102,0.338,0.102
							c0.043,0,0.086-0.004,0.129-0.014c0.162-0.035,0.302-0.133,0.39-0.273l0.849-1.354
							C23.097,1910.659,23.018,1910.292,22.746,1910.108z"/>
					</g>
					<g>
						<path fill="#FFFFFF" d="M26.389,1946.079l1.507,1.473l-15.5,15.5c-1.239,1.238-2.846,1.842-4.453,1.842
							c-1.64,0-3.247-0.604-4.486-1.842c-2.444-2.477-2.444-6.461,0-8.938l15.5-15.5l1.473,1.508l-9.508,9.508H22.84
							L26.389,1946.079z M9.482,1958.598c0-0.869-0.703-1.604-1.573-1.604c-0.871,0-1.574,0.734-1.574,1.604
							c0,0.871,0.703,1.574,1.574,1.574C8.779,1960.172,9.482,1959.469,9.482,1958.598z M9.482,1954.917
							c0,0.568,0.502,1.037,1.071,1.037c0.569,0,1.038-0.469,1.038-1.037c0-0.604-0.469-1.072-1.038-1.072
							C9.985,1953.844,9.482,1954.313,9.482,1954.917z M21.2,1934.897l10.412,10.406l-2.243,2.244l-10.412-10.412L21.2,1934.897z"/>
					</g>
					<g>
						<path fill="#FFFFFF" d="M31.611,1993.895c0,8.271-6.729,14.998-14.998,14.998s-14.998-6.729-14.998-14.998
							s6.729-14.998,14.998-14.998C24.882,1978.897,31.611,1985.625,31.611,1993.895z M7.909,1993.895
							c0-1.004,0.167-1.977,0.469-2.879l-4.084-0.566c-0.301,1.104-0.469,2.273-0.469,3.445c0,1.176,0.167,2.312,0.469,3.447
							l4.084-0.564C8.077,1995.87,7.909,1994.899,7.909,1993.895z M23.041,1993.895c0-3.549-2.879-6.428-6.428-6.428
							c-3.549,0-6.428,2.879-6.428,6.428c0,3.553,2.879,6.432,6.428,6.432C20.162,2000.323,23.041,1997.444,23.041,1993.895z
							 M13.165,1981.575l0.569,4.084c0.904-0.334,1.875-0.502,2.879-0.502c1.004,0,1.975,0.168,2.879,0.502l0.569-4.084
							c-1.105-0.301-2.276-0.469-3.448-0.469C15.441,1981.106,14.27,1981.274,13.165,1981.575z M20.062,2006.215l-0.569-4.086
							c-0.904,0.303-1.875,0.469-2.879,0.469c-1.004,0-1.975-0.166-2.879-0.469l-0.569,4.086c1.105,0.301,2.276,0.467,3.448,0.467
							C17.786,2006.682,18.957,2006.516,20.062,2006.215z M28.933,1997.342c0.301-1.139,0.469-2.271,0.469-3.447
							c0-1.172-0.167-2.344-0.469-3.445l-4.084,0.566c0.301,0.902,0.502,1.875,0.502,2.879c0,1.008-0.201,1.979-0.502,2.883
							L28.933,1997.342z"/>
					</g>
				</g>
			</g>
		</g>
	</g>
</g>
</svg>
